<?xml version="1.0" encoding="utf-8"?>
<!-- Generator: Adobe Illustrator 27.7.0, SVG Export Plug-In . SVG Version: 6.00 Build 0)  -->
<svg version="1.1" id="Layer_1" xmlns="http://www.w3.org/2000/svg" xmlns:xlink="http://www.w3.org/1999/xlink" x="0px" y="0px"
	 viewBox="0 0 1080 1080" style="enable-background:new 0 0 1080 1080;" xml:space="preserve">
<style type="text/css">
	.st0{fill:#FFFFFF;}
</style>
<g>
	<path class="st0" d="M820.9,484.1c1,6.7-3,8.5-8.8,9.4c-35.1,6-70.2,12.3-105.2,18.5c-56,9.9-111.9,19.9-167.9,29.7
		c-30.1,5.3-60.3,10.3-90.4,15.4c-2.5,0.4-5.1,1.4-7-1c-2.3-2.8-0.2-5.5,0.9-8c24.6-57.3,49.3-114.6,73.7-171.9
		c31.2-73.3,62-146.8,93.1-220.1c12.1-28.5,24.7-56.9,36.9-85.4c2.8-6.7,7.5-10.3,14.5-11.5c24.5-4.2,48.9-8.2,73.4-12.6
		c7.9-1.4,12,0.8,13.4,9.3c13.3,78.5,26.8,157,40.4,235.4c9.5,54.7,19.3,109.3,28.8,163.9C818.3,464.8,819.5,474.5,820.9,484.1z"/>
	<path class="st0" d="M262.6,216.7c-0.9-5.8,2.7-7.5,7.5-8.3c86.6-14.1,173-29.7,259.2-45.8c3.6-0.7,8-3.7,11,0.6
		c2.3,3.4-0.5,7-1.8,10.2C475,329.3,411.4,485.2,347.8,641c-0.7,1.7-1.1,3.5-2,5c-1.1,1.8-1,3.5-2.7,4.8c-2.3,1.7-4.4,1.2-5.1-1.4
		c-0.6-2.4-0.9-4.3-1.2-6.8c-0.3-2.3-1-5.4-1.4-7.6c-0.8-4.9-1.8-9.7-2.7-14.6c-1.7-9.8-3.4-19.7-5-29.5c-3.4-19.7-6.7-39.3-10.2-59
		c-0.3-1.5-0.5-2.9-0.8-4.4C299,425.7,281.2,323.9,263.4,222C263.1,220.2,262.9,218.5,262.6,216.7z"/>
	<path class="st0" d="M371.6,691.3c-49.5-0.1-91.1,42.6-91,93.5c0.1,48.8,43.7,92.5,92.7,90.9c44-1.5,88.1-33.9,88.1-93.3
		C461.3,733.4,420,691.5,371.6,691.3z M374.3,844.7c-34.8,0.9-61.8-25.6-62.6-61.5c-0.7-32,25.3-60,56.3-60.8
		c34.7-0.9,62.8,25.5,63.6,59.6C432.3,814.9,405.8,843.9,374.3,844.7z"/>
	<path class="st0" d="M729,863.1c-12.2-15.6-24.3-31.4-37-46.5c-6.2-7.4-5.7-10.2,3.8-13.6c23.5-8.6,39.2-36.8,34.7-59.8
		c-5.7-29-26.6-47.6-54.1-48c-13.7-0.2-27.3-0.2-41-0.9c-8-0.4-11.2,2.8-11.1,10.6c0.2,41.8,0.1,83.6,0.4,125.5
		c0.1,7.7,1,15.5,3.8,22.7c3,7.5,8.1,13.4,14.3,18.5c2.7,2.2,5.6,5.1,9.4,3.7c5.2-1.9,3.6-7.3,3.6-11.4c0.1-7.1,0.1-14.2,0.1-21.3
		c0-3.6,0-7.2,0-10.8v-5.4c0-1,0-1.6,0.3-1.9c0.3-0.4,0.9-0.5,2-0.8c0.2,0,0.4-0.1,0.6-0.1c1,0.1,2.3,2.5,2.9,3.2
		c1.1,1.4,2.3,2.8,3.4,4.2c2.2,2.7,4.4,5.4,6.6,8.1c4.4,5.4,8.7,10.9,12.5,16.6c2,2.9,4.1,5.7,6.6,8.2c3.7,3.8,8,7,13,8.9
		c5.2,2,11.1,2.3,16.7,2.1c2.6-0.1,5.2-0.3,7.8-0.5c1.9-0.1,3.9,0,4.9-2C735.1,868.4,731.1,865.7,729,863.1z M673.2,777.6
		c-4.4-0.3-10-1.5-13.6-4c-3.2-2.2-3.6-6.4-3.6-9.9c0-5.3,0-10.7-0.1-16c0-0.8,0-1.6,0-2.4c-0.1-5.6-0.7-11.5,1.8-16.7
		c2.2-4.8,7.4-4.4,11.9-4c7.3,0.8,15.8,2.1,21.7,6.8c6.7,5.4,10.7,15.1,9.8,23.7C699.8,767.5,685.4,778.4,673.2,777.6z"/>
	<path class="st0" d="M471,758.3c0-16.2,0-32.5,0-48.7c0-8-0.1-15.2,11.6-14.7c19.2,0.8,19.6,0.5,19.6,14.3
		c0,32.5-0.3,64.9,0.1,97.4c0.3,24.2,16.1,38.9,40,38.2c19.4-0.6,34-14.7,34.3-34.4c0.4-23.1,0.3-46.2-0.1-69.2
		c-0.4-19,8.2-33.1,22.6-44.4c1.6-1.3,3.9-2.9,5.6-2.6c2.9,0.6,2.9,3.8,2.9,6.3c-0.8,40,2.9,80.1-1.9,119.9
		c-3.4,28.4-31.3,53.4-63.8,55c-28.7,1.4-54.5-13.1-66.4-44c-3.1-8.1-4.6-16.6-4.5-25.4C471.2,790,471,774.2,471,758.3z"/>
	<path class="st0" d="M886.8,832.5c-5.2-6.6-11.5-12-19.1-15.6c-6.7-3.2-9.3-7.8-9.1-15.3c0.5-16.5,0.2-33.1,0.2-49.7h0.2
		c0-16.6,0.1-33.1-0.1-49.7c0-3.4,1.9-8.4-2.1-9.7c-4.1-1.3-5.2,4.1-7.2,6.8c-32.4,44.5-64.6,89.1-96.9,133.7
		c-1.4,2-3.8,3.9-2.4,6.6c1.4,2.6,4.3,2.2,6.8,2.2c17.6,0,35.2-0.2,52.9-0.2c22.1-0.1,19.7-2.1,19.2,19.7c-0.2,8.1,2.5,11.2,10.3,11
		c3.2-0.1,6.4,0.8,9.6,1.1c6.2,0.5,9.2-2.5,9.9-8.7c0.8-7-3.3-15.5,2.1-20.8c5.7-5.5,14.5-1.5,21.9-2.4
		C890,840.8,890.9,837.7,886.8,832.5z M827.6,817.6h-37.4l37.4-43.9V817.6z"/>
	<path class="st0" d="M194.2,771.2c0-20.6,0.4-41.1-0.2-61.7c-0.3-10,3.9-13.9,13.2-13.9c19.4-0.1,38.9,0,58.3-0.3
		c11.9-0.2,11.8,7.3,12,15.9c0.1,8.5-1.6,14.1-11.7,13.7c-10.1-0.4-20.2,0.2-30.2-0.1c-6.8-0.2-9.8,2.3-9.8,9.4
		c0.2,29.5-2.2,24.2,22.6,24.4c12.9,0.1,14.3,1.8,14.2,15.6c-0.1,14.7-0.6,15.3-13.9,15.4c-23.3,0.2-23.3,0.2-23.2,23.7
		c0.1,17.3,0.2,34.6,0.2,51.9c0,3.4,1.2,7.9-3,9.6c-4.2,1.7-7.7-1.1-10.6-3.8c-11.5-10.4-17.7-23.5-17.8-39.1
		C194.1,811.6,194.2,791.4,194.2,771.2z"/>
	<path class="st0" d="M685.1,1018.2c-4.7-8.5-9.7-16.9-15.2-24.9c-5.6-8.1-5.7-13.8,3.2-20.3c12-8.7,14.6-21.4,11.3-35.7
		c-3.2-13.9-13.5-19.6-25.7-23.2c-11.2-3.3-22.8-2.3-34.3-1.9c-7.1,0.3-11.1,3.4-11.4,11.2c-1,24,1.1,48.1-0.6,72.1
		c0,8.6-0.3,17.3,0.1,25.9c0.2,3.3,0.8,8,5.9,7.3c4.2-0.5,3.8-4.6,4-7.8c0.8-10.1-1.9-20.1,0-30.2c0.5-2.8,0.3-5.8,3-7.7
		c6.8-4.7,27.9-0.3,32.3,6.9c6.8,11,13.2,22.3,20.2,33.1c2.1,3.2,3.8,10.1,8.9,7C692.5,1026.9,687.1,1021.9,685.1,1018.2z
		 M652.9,970.7c-2.1,0.1-4.3,0-6.5,0.1c-26.8,0.5-25.4,2.4-25.3-24.5c-0.1-24.4-0.1-24.4,24.2-22.9c4.6,0.3,9.3,0.8,13.8,2.1
		c12.9,3.8,18.3,11.9,16.8,23.9C674.3,961.5,665,970.2,652.9,970.7z"/>
	<path class="st0" d="M536.5,910c-30.5-0.4-58.5,27.3-59,58.7c-0.7,37.8,23.9,65.1,58.7,65c32.1,0,56.5-26.7,56.9-62.2
		C596.2,939.2,565.7,910.4,536.5,910z M535.7,1022.8c-29.4-0.1-49.1-20.7-49-51.4c0.1-29.9,19.8-50.4,48.7-50.4s50.1,21.7,49.8,50.8
		C584.9,1002.3,564.8,1022.9,535.7,1022.8z"/>
	<path class="st0" d="M743.4,1031.9c-33.1,0.3-33.5,0.3-34.2-32.3c-0.5-25.2,0-50.4-0.2-75.6c-0.1-8.1,3.1-11.9,11.4-11.9
		c14.4,0.1,28.8-0.4,43.1-0.5c3.9,0,8.9-0.2,8.7,5.5c-0.2,4.9-4.8,6.1-8.8,6.1c-12.2,0.2-24.5,0.4-36.6-0.4
		c-6.4-0.4-8.5,1.8-8.4,7.7c0.1,8.3,0.2,16.6,0,24.9c-0.2,6.5,2.8,9,9.1,9.1c11.1,0.1,22.2,0.5,33.3,1.1c3,0.2,7.5-0.2,7.4,4.3
		c-0.1,3.7-4,5.1-7.2,5.3c-10.8,0.4-21.6,0.6-32.3,0.2c-7.3-0.3-10.7,2.2-10.3,9.8c0.4,8.6,0.4,17.3,0,25.9
		c-0.4,8.7,3.8,11.5,11.7,11.3c10.4-0.2,20.9-0.2,31.3,0c3.2,0.1,6.4,0.7,9.4,1.6c2,0.6,3.9,2.4,3.6,4.8c-0.4,2.7-2.9,3-5,3
		C760.7,1032,752,1031.9,743.4,1031.9z"/>
	<path class="st0" d="M326.7,942.8c-0.2,8.2,3.1,13.6,9.8,17.3c8.6,4.7,18.1,7,27.2,10.4c18.2,6.6,27.3,21.4,23.2,37.4
		c-4.5,17.5-22.4,28.3-41.1,25c-12.2-2.2-22.5-7.5-29.7-17.9c-1.6-2.3-3.8-5.2-0.9-7.7c3.2-2.8,5.4,0.5,7,2.6
		c9.6,12.3,22.6,14.2,36.9,12.9c10.2-0.9,17.3-7.3,18.9-17.4c2-12.5-1.2-19.5-11.7-23.8c-9.3-3.8-19.2-6.4-28.3-10.5
		c-19.9-9-26.1-24.6-17.5-42c8.3-16.9,30.1-23.3,47.2-13.6c4.1,2.3,7.8,5.2,11.5,8.1c2.7,2.2,4.3,5.5,1.8,8.5
		c-3,3.6-5.9,0.8-8.3-1.3c-9.7-8.5-19.8-14.5-33.2-7.7C331.1,927.3,326.1,933.5,326.7,942.8z"/>
	<path class="st0" d="M439.5,979.5c0,14-0.1,28.1,0,42.1c0,4,0.9,8.4-5,8.8c-5.9,0.3-8.5-2.9-8.6-8.6c-0.3-23-1.1-46,0.6-69
		c0.2-2.9,0.6-5.7,0.7-8.6c0.6-18.5-0.5-19.6-19-20.7c-4.4-0.3-9.7-0.6-9.9-6c-0.2-6.2,5.5-5.5,9.7-5.5c16.9-0.1,33.8,0,50.6,0.1
		c3.8,0,8.9-0.5,9,5.1c0.1,4.5-4.6,4.7-8,5.6c-6.1,1.6-14-2-18.4,3.5c-5,6.2-1.9,14.6-2.2,22c-0.4,10.4-0.1,20.9-0.1,31.3
		C439.2,979.5,439.4,979.5,439.5,979.5z"/>
</g>
</svg>
